PathFileType	4	(X/Y/Z)	 s10c0103.trc
DataRate	CameraRate	NumFrames	NumMarkers	Units	OrigDataRate	OrigDataStartFrame	OrigNumFrames
200	200	4	50	mm	200	1	2000
Frame#	Time	racr			lacr			c7			jug			rlel			rdr			llel			ldr			s2			lic			ric			lasi			rasi			rpsi			lpsi			rgt			lgt			rth1			rth2			rth3			rth4			rlfc			rmfc			rsh1			rsh2			rsh3			rsh4			rlmal			rmmal			rcal			rtoe			rmt5			lth1			lth2			lth4			lth3			llfc			lmfc			llmal			lmmal			lcal			lmt5			lsh1			lsh2			lsh3			lsh4			ltoe			SBIKE			LBIKE			RBIKE			
		X1	Y1	Z1	X2	Y2	Z2	X3	Y3	Z3	X4	Y4	Z4	X5	Y5	Z5	X6	Y6	Z6	X7	Y7	Z7	X8	Y8	Z8	X9	Y9	Z9	X10	Y10	Z10	X11	Y11	Z11	X12	Y12	Z12	X13	Y13	Z13	X14	Y14	Z14	X15	Y15	Z15	X16	Y16	Z16	X17	Y17	Z17	X18	Y18	Z18	X19	Y19	Z19	X20	Y20	Z20	X21	Y21	Z21	X22	Y22	Z22	X23	Y23	Z23	X24	Y24	Z24	X25	Y25	Z25	X26	Y26	Z26	X27	Y27	Z27	X28	Y28	Z28	X29	Y29	Z29	X30	Y30	Z30	X31	Y31	Z31	X32	Y32	Z32	X33	Y33	Z33	X34	Y34	Z34	X35	Y35	Z35	X36	Y36	Z36	X37	Y37	Z37	X38	Y38	Z38	X39	Y39	Z39	X40	Y40	Z40	X41	Y41	Z41	X42	Y42	Z42	X43	Y43	Z43	X44	Y44	Z44	X45	Y45	Z45	X46	Y46	Z46	X47	Y47	Z47	X48	Y48	Z48	X49	Y49	Z49	X50	Y50	Z50	
1	0.0050	407.589811	1283.716377	-29.753968	426.439254	1286.306546	-364.607166	413.319417	1327.031134	-196.278780	441.673007	1187.652342	-190.480185	490.775669	1041.583597	48.582645	645.241541	878.698221	-8.231715	504.919489	1032.418587	-454.347677	660.114828	882.826128	-375.002367	-86.832000	1109.557113	-212.547781	89.753166	1077.936360	-353.719563	99.416792	1071.883023	-83.255643	88.209062	995.062769	-335.560802	72.097145	1003.886770	-79.470979	-31.322177	1153.531996	-154.475952	-18.131431	1159.663733	-267.023513	-41.008108	1010.378982	-16.444014	-43.289121	985.207256	-411.458460	46.413900	901.062121	9.522929	133.762641	883.027356	0.780270	196.207273	824.711794	-6.795878	148.946275	916.767411	-8.174436	298.681711	775.240925	-22.712509	298.837409	766.319483	-141.183054	251.592023	667.069568	-2.725458	264.976784	579.638871	-15.855326	233.930513	499.837627	-25.200626	297.875995	579.880557	-36.827995	223.020765	398.551717	-45.083156	251.591775	417.648313	-121.677182	174.691855	378.483623	-95.794488	414.795432	350.880082	-79.390231	329.317514	326.487987	-21.431309	37.421061	879.225571	-428.230143	118.768462	849.964157	-417.998831	138.656210	879.065972	-406.641890	175.581209	781.381077	-412.973427	260.094682	707.789043	-395.441053	263.140838	698.699824	-271.923084	-13.976927	452.825435	-378.650165	0.450226	443.489676	-298.872352	-73.596963	461.419015	-333.984766	24.970069	314.949663	-397.669695	161.392438	636.239118	-418.885735	125.899562	557.111206	-402.854959	51.882720	507.466506	-396.672235	149.230785	540.613241	-377.294009	103.974976	281.100124	-338.730607	-204.346736	833.529925	-224.761464	-78.355181	83.028345	-422.691466	-102.166356	81.355753	-24.014653	
2	0.0100	407.666571	1283.777771	-29.673648	426.494503	1286.388060	-364.630879	413.388413	1327.102358	-196.213104	441.663940	1187.738851	-190.469455	490.861114	1041.636249	48.596371	645.249992	878.685289	-8.190613	505.042603	1032.522377	-454.336294	660.151315	882.780484	-374.896169	-86.686153	1109.557108	-212.586927	89.850809	1077.869163	-353.710623	99.549664	1071.900360	-83.243227	88.263686	994.918329	-335.573349	72.105211	1003.827284	-79.495775	-31.222667	1153.510039	-154.438299	-17.998432	1159.622293	-267.087685	-40.914864	1010.466522	-16.464161	-43.223448	985.167892	-411.480483	46.594845	901.237056	9.595024	133.923496	883.281410	0.808407	196.360879	824.965451	-6.715729	149.037253	916.982446	-8.188702	298.871076	775.475444	-22.665130	298.877027	766.498280	-141.176082	251.703508	667.293196	-2.720542	265.006659	579.907064	-15.818631	233.965935	500.200017	-25.173769	297.933878	580.079724	-36.808622	223.044555	398.773584	-45.022301	251.551732	417.874406	-121.706122	174.695729	378.732292	-95.766224	414.795820	351.184060	-79.283557	329.368593	326.861771	-21.358844	37.409375	879.140959	-428.259093	118.730398	849.822547	-418.009778	138.629173	878.915831	-406.664014	175.500077	781.233696	-412.981837	259.974113	707.565011	-395.452798	263.165957	698.523422	-271.863051	-14.014605	452.542910	-378.664552	0.655505	443.079443	-298.747361	-73.648117	461.083105	-333.995823	24.965559	314.687449	-397.665093	161.286731	636.018496	-418.890694	125.827370	556.890777	-402.883081	51.809543	507.243420	-396.693636	149.143999	540.372241	-377.276731	103.971630	280.828561	-338.724669	-204.340959	833.522167	-224.751504	-78.307197	83.048520	-422.657798	-102.149972	81.378938	-23.994848	
3	0.0150	407.726851	1283.830083	-29.623054	426.544475	1286.482780	-364.642585	413.444041	1327.172497	-196.180864	441.697321	1187.835157	-190.456365	490.917302	1041.709560	48.611815	645.222784	878.705832	-8.228156	505.155682	1032.636328	-454.293675	660.179386	882.770629	-374.856581	-86.603701	1109.566874	-212.644023	89.970260	1077.769402	-353.653327	99.608126	1071.945994	-83.319294	88.326335	994.787415	-335.596293	72.135316	1003.853410	-79.545293	-31.146368	1153.510547	-154.497329	-17.879914	1159.567641	-267.192823	-40.873323	1010.579462	-16.475909	-43.165172	985.116689	-411.496563	46.689238	901.391157	9.624627	134.029544	883.512389	0.830680	196.461490	825.213952	-6.654091	149.074599	917.200219	-8.204514	299.016382	775.730792	-22.644786	298.938954	766.682042	-141.156444	251.789588	667.497927	-2.712571	265.055791	580.117216	-15.835626	233.978703	500.447303	-25.153362	297.949916	580.362508	-36.801336	223.035931	398.973883	-45.010414	251.452721	418.048056	-121.644870	174.668270	378.951457	-95.784658	414.775419	351.525562	-79.309080	329.370658	327.176220	-21.330920	37.391198	879.044831	-428.293268	118.699740	849.654691	-418.019499	138.602267	878.757887	-406.663840	175.420398	781.072137	-412.978851	259.849391	707.343880	-395.446085	263.425609	698.338142	-271.689552	-14.073259	452.194648	-378.662857	0.701455	442.689529	-298.721997	-73.665984	460.692814	-333.948431	24.941798	314.431793	-397.680105	161.198437	635.717771	-418.866676	125.350196	555.540860	-403.125200	51.740571	506.972777	-396.700674	150.175634	541.186355	-378.177015	103.976665	280.617397	-338.702671	-204.341100	833.520705	-224.746206	-78.284167	83.040339	-422.660077	-102.143214	81.378877	-23.978821	
4	0.0200	407.742805	1283.882942	-29.622900	426.588740	1286.554489	-364.641276	413.603984	1327.386673	-196.280487	441.694918	1187.937274	-190.448578	490.947312	1041.746607	48.564302	645.254952	878.689705	-8.203440	505.527600	1032.691635	-453.727044	660.183953	882.775108	-374.897692	-86.568629	1109.563206	-212.718549	90.072537	1077.688200	-353.611865	99.613810	1071.925513	-83.466535	88.380560	994.668953	-335.590264	72.146704	1003.883673	-79.585453	-31.129030	1153.499813	-154.677283	-17.798522	1159.541184	-267.293511	-40.876728	1010.671681	-16.517801	-43.113549	985.067274	-411.520411	46.706697	901.559151	9.621706	133.623963	883.604643	0.595807	196.549275	825.474230	-6.656708	149.356643	917.131622	-8.323966	298.714763	775.411636	-23.021397	299.006149	766.839622	-141.111495	251.638642	667.740655	-2.648133	265.193111	580.490049	-15.826448	233.936687	500.699766	-25.170003	298.043487	580.776807	-36.635087	222.861747	399.319623	-44.943352	251.100216	418.144833	-121.717495	174.616645	379.112289	-95.787363	414.741427	351.888881	-79.397385	329.344433	327.471544	-21.353596	37.366307	878.914346	-428.307450	118.652094	849.502784	-418.028363	138.580314	879.123842	-407.514987	175.330172	780.854053	-412.964606	259.730121	707.120350	-395.400673	263.396435	698.163194	-271.610366	-14.113942	451.860056	-378.681384	0.607277	442.409876	-298.716469	-73.731608	460.388198	-333.964775	24.392883	312.880234	-397.747532	161.089434	635.449911	-418.860112	125.240989	555.088710	-403.125233	51.598232	506.811414	-396.523176	149.065260	539.967963	-377.466204	104.011076	280.371282	-338.680168	-204.340153	833.521585	-224.753698	-78.302065	83.055435	-422.666180	-102.151418	81.382733	-24.008943	
